<svg xmlns="http://www.w3.org/2000/svg" version="1.1" xmlns:xlink="http://www.w3.org/1999/xlink" xmlns:svgjs="http://svgjs.com/svgjs" width="1200" height="700" preserveAspectRatio="none" viewBox="0 0 1200 700"><g mask="url(&quot;#SvgjsMask1090&quot;)" fill="none"><rect width="1200" height="700" x="0" y="0" fill="rgba(212, 231, 251, 1)"></rect><path d="M30 700L730 0L1055.5 0L355.5 700z" fill="url(#SvgjsLinearGradient1091)"></path><path d="M458 700L1158 0L1299 0L599 700z" fill="url(#SvgjsLinearGradient1091)"></path><path d="M1173 700L473 0L-113.5 0L586.5 700z" fill="url(#SvgjsLinearGradient1092)"></path><path d="M801 700L101 0L-58 0L642 700z" fill="url(#SvgjsLinearGradient1092)"></path><path d="M831.2139321667225 700L1200 331.21393216672254L1200 700z" fill="url(#SvgjsLinearGradient1091)"></path><path d="M0 700L368.78606783327746 700L 0 331.21393216672254z" fill="url(#SvgjsLinearGradient1092)"></path></g><defs><mask id="SvgjsMask1090"><rect width="1200" height="700" fill="#ffffff"></rect></mask><linearGradient x1="0%" y1="100%" x2="100%" y2="0%" id="SvgjsLinearGradient1091"><stop stop-color="rgba(171, 210, 245, 1)" offset="0"></stop><stop stop-opacity="0" stop-color="rgba(171, 210, 245, 1)" offset="0.66"></stop></linearGradient><linearGradient x1="100%" y1="100%" x2="0%" y2="0%" id="SvgjsLinearGradient1092"><stop stop-color="rgba(171, 210, 245, 1)" offset="0"></stop><stop stop-opacity="0" stop-color="rgba(171, 210, 245, 1)" offset="0.66"></stop></linearGradient></defs></svg>